<?xml version="1.0" standalone="no"?><!DOCTYPE svg PUBLIC "-//W3C//DTD SVG 1.1//EN" "http://www.w3.org/Graphics/SVG/1.1/DTD/svg11.dtd"><svg t="1542036738905" class="icon" style="" viewBox="0 0 1024 1024" version="1.1" xmlns="http://www.w3.org/2000/svg" p-id="3800" xmlns:xlink="http://www.w3.org/1999/xlink" width="128" height="128"><defs><style type="text/css"></style></defs><path d="M106.9 742.7l612.4 2-47.3 67.6-510.4 5.2z" fill="#EAD9C3" p-id="3801"></path><path d="M96.1 272.9h631l29.6 435.7-58.1 39.8H101.3l-45.2-57z" fill="#54BDDD" p-id="3802"></path><path d="M114.6 202.6h599.8l14.8 60.9-3.1 41.4H89.5z" fill="#E8E8E8" p-id="3803"></path><path d="M101.3 745c9-1 618-0.2 618-0.2L672 812.3l-506.9 9.5-63.8-76.8z" fill="#EAD9C3" p-id="3804"></path><path d="M671.7 818.8l47.3-67.5s-247.5-0.3-429.3-0.3c171.5 0 368.3 0.3 368.3 0.3l-47.3 67.5" fill="#D6C8B3" p-id="3805"></path><path d="M106.9 747l63.8 76.8 80.2-1.5-62.6-75.3" fill="#EDE6DD" p-id="3806"></path><path d="M765.4 701.5l101.1-23.2s31.3-37.4 32.4-38.9c1-1.6 20.3-41.9 20.3-41.9l16.4-67.9 13.2-90.8-23.8-67.2-67.9-38.9-95.7-13.2-23.9 9.9 7.2 55.1 45.3-1.1 45.5 4.1 49.7 40.5-3.5 30.6 6.6 60.9-21.9 75.6-46 33.5-55.1 19.2v53.7z" fill="#0DAABA" p-id="3807"></path><path d="M941 440c-0.8 0.3-1.6 0.5-2.4 0.8-0.2 0.1-1.5-2.9-1.3-3.1 0.7-0.6 1.5-1.3 2.2-1.9l-22.1-62.4-67.9-38.9-95.7-13.2-23.9 9.9 2.6 19.6c1.1 1.7 1.6 4.1 2.4 6.1l-1.5 1.2 3.7 28.1 38.7-0.9c-1.3-1.1-2.6-2.5-3.9-4.4 4.1-6.4 6.8-13.9 14.3-8.5 1.8 1.3 2.8 8.3 1.4 10.4-0.7 1.1-1.5 2-2.2 2.7l42.5 3.8 7.3 6c1.8-1.1 3.6-2.2 5.4-3.2-0.7 2.4-1.3 4.4-1.8 6.1l38.9 31.7-3.1 27.4c0.8 0.2 1.5 0.5 1.8 0.9 2.9 5.1 2.7 9.2-1.1 12.1l1.1 10.5c3.9-4.1 9.2-1.9 20.6 7.2-5.5 4-10.1 8.2-15.3 10.5-0.9 0.4-2.1 0.4-3.4 0.1l2.5 22.7-8.1 28c10.1 4.6 19.4 9.9 19.8 26.3-16 10.5-17.6 10.6-23.6 1.6-1.1-1.7-2.1-3.3-2.9-4.7l-7 24.5-46 33.5-55.1 19.2v53.7L859 680.1s31.3-37.4 32.4-38.9c1-1.6 20.3-41.9 20.3-41.9l16.4-67.9 13.2-90.8-0.3-0.6z m-186.4-71.3c-1.9 3.1-6.9 3.7-10.5 5.4-0.8-4.2-2.7-8.7-2-12.4 0.9-4.3 4.3-8 7.3-13.2 11.9 5.1 9.5 13.2 5.2 20.2z m18.8 310.9c3.5-6.1 5.6-9.7 9.6-16.7 4.5 7.8 7.3 12.6 12.1 21-8.8-1.7-14.2-2.8-21.7-4.3z m23.6-5.3l-3.9-12.6c1-0.5 2.1-1 3.1-1.4 1.7 3.7 3.3 7.4 5 11.1-1.4 1-2.9 1.9-4.2 2.9z m69.7-26.4c-0.9 1-3 0.7-5.9 1.1-0.1-7.8 1.5-11.9 12.2-11.6-3.1 5.2-4.4 8.2-6.3 10.5z m8.7-247.2c-3.3-26.5-2.9-27.5 12.5-27.4 5.3 18.5 4.3 20.8-12.5 27.4z m16.2 37.4c4.5 1.5 8.3 2.8 15 5-9.9 7-9.9 7-15-5z m21.1 85.4c3.7-6.7 6.3-11.5 10.3-18.7 3.7 16.2 3.7 16.2-10.3 18.7z" fill="#54BDDD" p-id="3808"></path><path d="M739.5 341.9s106.6-6.7 148.4 31.4 32.4 65.3 32.4 65.3l-26.9 164.7s-41.4 80-122.5 76.5l-5.6 21.8 60.3-7.5 65.6-52.8 28.7-42.3 28.6-160.6-31.1-64.8-67.9-38.9-63.8-15-46.6 13 0.4 9.2z" fill="#4DAECB" p-id="3809"></path><path d="M754.2 714.8c-7 0-12.8-5.6-12.9-12.6-0.2-7.2 5.4-13.1 12.6-13.3l39.2-1.1h0.4c23.9 0 49.9-10.7 71.3-29.3 23.1-20.1 39.3-47.8 45.6-78.1 0-0.1 0.1-0.3 0.1-0.4 0.2-0.7 16.9-69.1 23.5-103.9 1.4-7.1 1.9-22.2 1.9-25.8-1.1-29.7-15.1-59.7-38.6-82.2-23.6-22.6-54.3-35.6-84.4-35.6H739c-7.2 0-13-5.8-13-13s5.8-13 13-13h73.7c36.7 0 74 15.6 102.4 42.8 28.4 27.2 45.3 63.8 46.6 100.2 0 1-0.3 20.4-2.4 31.3-6.6 34.8-22.5 99.9-23.8 105-7.5 35.7-26.6 68.4-53.9 92.2-26.4 22.9-57.7 35.6-88.1 35.6l-39 1.1c-0.1 0.1-0.2 0.1-0.3 0.1z m181.6-264.4v0z" fill="#3D6072" p-id="3810"></path><path d="M692.6 200.9l-503.3 1.5h505.9zM681.1 577.5l-23.3-294.2H190.2l-21.3 294.2zM722.9 221.3l35.8 453.3 0.1-1.9-35.9-454.8-6.6-3.7 0.6 3.8z" fill="#54BDDD" p-id="3811"></path><path d="M168.9 577.5l-4.3 60h521.2l-4.7-60z" fill="#7ED9E8" p-id="3812"></path><path d="M97 224.8v0.7l3.7-4.8zM189.3 202.4h-72.2l-0.2 0.2h0.2zM714.4 202.4h-19.2l21.1 11.8z" fill="#E8E8E8" p-id="3813"></path><path d="M756.9 702.8L727.5 745H660l-2.4 3.4h69.9l29.4-42.2 1.9-30.1-0.1-1.5z" fill="#54BDDD" p-id="3814"></path><path d="M716.9 218l10.6 65.3h-69.7l23.3 294.2h68l4.1 60 3.7 65.3 1.8-28.2-35.8-453.3z" fill="#4DAECB" p-id="3815"></path><path d="M727.5 745l29.4-42.2-49.6 42.2z" fill="#54BDDD" p-id="3816"></path><path d="M681.1 577.5l4.7 60h67.4l-4.1-60z" fill="#72BECE" p-id="3817"></path><path d="M756.9 702.8l-3.7-65.3h-67.4l3.1 38.6-1.9 30.1-27 38.8h47.3z" fill="#35A3BC" p-id="3818"></path><path d="M63.7 688.7l33.3-460 0.2-0.3-0.2-2.9-2.5 3.2-33.3 460 29.2 53.1 8.4 3.2h2.5l-8.4-3.2zM114.6 202.6l-13.9 18.1 16.2-18.1z" fill="#54BDDD" p-id="3819"></path><path d="M92.9 741.8l8.4 3.2-37.6-56.3z" fill="#54BDDD" p-id="3820"></path><path d="M168.9 577.5l21.3-294.2h-89.6l-3.4-54.9-0.2 0.3-33.3 460 6.3-51.2 4.7-60z" fill="#74C8E2" p-id="3821"></path><path d="M74.7 577.5l-4.7 60h94.6l4.3-60z" fill="#95D6E4" p-id="3822"></path><path d="M117.1 202.6h-0.2l-16.2 18.1-3.7 4.8 0.2 2.9z" fill="#54BDDD" p-id="3823"></path><path d="M537.5 667.2c1 9.5-10.3 25.3-17.1 25-4.9-0.2-11-12-10.9-21.3 0-7.8 10-18.6 16.7-17.9 7.7 0.8 10.6 7.1 11.3 14.2zM444.4 476.7c-2.6 0.6-5.1 1.5-10.5 3 1.5-11.9 2.7-21.7 4.5-36.1 6.5 3.4 11.3 4.3 13.8 7.5 3.9 5.1 8.9 12 8.6 17.8-0.7 11-10.3 6.5-16.4 7.8zM425.3 714.1c8.2-2.4 14.6-4.2 21-6.1 1.4 1.5 2.9 3 4.3 4.5-9.1 5.8-8.8 12.5-4.9 20.2M650.5 716.9c8.5-5.9 12.5 4.1 22.4 6.8M272.4 505.8c-1.6 6-6.6 10.8-10.1 16.1-1.5-0.5-2.9-1-4.4-1.5-1.3-6.7-3.6-13.4-3.5-20.1 0-4.2 2.9-9.2 5.8-12.3 1.2-1.2 7.3 0.6 8.5 2.8 2.3 4.4 4.9 10.7 3.7 15zM85.1 634.3c-15.6-5.3-17-13.6-6.2-30.4 13.2 6.2 13.2 6.2 6.2 30.4zM384.2 291.6c4.2 20.6-2.3 27.7-21.4 21.6 7.9-16.4 9.6-18.1 21.4-21.6zM554.2 690.4c2.6-14 8.8-18.5 28-19.4-8.4 19.9-12 22.3-28 19.4zM185.5 363.9c3.4 9.8 0.4 14.1-16.5 20.5-1.2-5.7-3.6-10.7-2.6-14.5 1.2-4.2 5.1-8 8.6-10.7 4.7-3.4 8.5-1.1 10.5 4.7zM150.9 220.3c2.9-6.8 4.8-13.3 8.2-18.4 1.5-2.3 6.5-3.6 8.9-2.4 2.3 1.1 4.5 5.7 4.8 9 0.8 10.3-3.9 13.1-21.9 11.8zM714.5 313.6c15.9 18.5 15.9 18.5 12.5 29.8-13.8-8.4-14.5-10.3-12.5-29.8zM415.8 230.5c1.8 5.1 3.8 10.7 6.1 17-8 7.3-13.7 1-20.2-1.3 0.3-10.9 1.7-18.8 14.1-15.7zM277.4 714c-1-6.5 4.1-9.7 9.7-9.8 5.3-0.1 10.8 1.3 11.2 8.4 0.5 7.4-4 9.6-11.4 10.2-3.2-2.8-8.9-5.3-9.5-8.8zM596 360.8c13.4 3 15.2 5.7 14.2 23.3-13.4-5.9-13.4-5.9-14.2-23.3zM158.4 623.1c5.7 5.9 2.8 11-1.9 15.6-5.3-1-10.5-2-15.7-2.9 6.8-13.4 12.8-17.8 17.6-12.7zM514.5 582.3c-6.3 0.9-12.6 2.2-18.9 2.4-5.4 0.2-7.2-5-3.7-10.4 1.5-2.4 4.3-3.7 7-6 5.8 3.8 11.1 7.4 16.4 11-0.3 1-0.5 2-0.8 3zM379.3 591.5c0.5 3.5-3.4 11-5.8 11.3-9.1 1.1-9.6-7.4-11.4-16.9 8.1-1.8 15.5-5.9 17.2 5.6zM556.8 645.5c-2.1 0.8-6.8-0.2-7.2-1.5-1.3-4.4-2.1-9.6-1.1-13.9 0.7-3.2 4.7-5.4 9.9-11 1.3 8 1.7 11 2.2 13.9 1.1 5.1 1.6 10.4-3.8 12.5zM344.5 725.4c5.3-1.3 11.1-0.2 16.8-0.1 0.2 1.9 0.4 3.9 0.6 5.8M344.5 379.8c-0.8 4-4.8 9.7-7.6 9.8-3 0.2-6.3-5.1-11.2-9.7 4.7-3.7 7.3-7.2 10.4-8 5-1.4 9.7 1.4 8.4 7.9zM44.8 247.7c-0.1 1-0.3 1.9-0.4 2.9M627.1 541.5c-4.6 4.1-9.2 8-16.8 14.7-0.1-8.2-1.8-14.3 0.2-17.4 4.7-7.3 10.5-4.9 16.6 2.7zM747.2 571.3c1.8-6.8 3.6-13.7 5.9-22.4 9.1 4 10.6 9.7 7.7 17.2-2.4 6.5-6.2 10.4-13.6 5.2zM678.5 694c-7-5.5-12.7-10-19.7-15.6 19.7-2.1 23.8 1.2 19.7 15.6zM559.6 447.5c-2.1 0.5-7.6-5-7.5-7.6 0.1-8.6 4.8-12 12.7-8.9 2.2 7.3 3 14.4-5.2 16.5zM727.8 621.2c6.7-9.6 12.7-3.8 19.7-0.1-9.5 10.3-9.5 10.3-19.7 0.1zM182.7 556.8c-1.3-0.5-2.7-1.1-4.1-1.7 0.6-5.7 1.2-11.4 2.2-20.6 5.7 5.2 8.8 8 12.9 11.7-4.5 4.4-7.8 7.5-11 10.6zM571.5 518.3c-4.3 7.1-7.8 13-11.4 19-3.6-18.3-3.6-18.3 11.4-19zM318.8 250.9c4.6-4 7.4-7.2 10.9-9.1 0.9-0.5 3.6 3.2 5.5 5-3.1 3.1-5.9 6.4-9.3 9-0.7 0.5-3.2-2.2-7.1-4.9zM219.7 708.5c0.6-0.1 1.4 1.6 2.9 3.5-2 3.7-4.2 7.6-6.3 11.6-1.7 0-3.4 0-5.2 0.1-0.6-4.3-2.6-9.3-1.4-12.7 0.7-2.1 6.5-2 10-2.5zM210.5 296.9c8.4-0.8 8.4-0.8 14.6 4.9-10.9 6.3-10.9 6.3-14.6-4.9zM128.6 468.6c7.3 9.4 7.3 9.4-4.2 19.7-1-8.8-2.4-15.4 4.2-19.7zM554.3 304.4c-1.9 8.6-3.2 14.6-4.9 22.1-7.9-13.1-7.9-13.1 4.9-22.1zM497.8 451.8c1.7 7.7 3 13.4 4.8 21.2-12.7-6.6-12.8-7-4.8-21.2zM483.7 258.3c-1.1-0.1-1.9-3.7-2.8-5.7 3.9-1.7 7.7-3.3 12.7-5.4 0.2 11.1-4.8 11.7-9.9 11.1zM368.6 458.3c-4.1 2.9-8.1 4.9-11.5-0.3-0.8-1.3 0.7-6.8 2.2-7.5 5.4-2.5 8.2 1 9.3 7.8zM439 689.7c5.3 1.5 10.6 3 16.8 4.8-9 7.8-9 7.8-16.8-4.8zM501.8 219.3c-3.4 8.4-7.9 5.3-14.7 3.5 6-6.7 9.8-8.6 14.7-3.5zM262.4 363.5c-4.6-1.1-9.3-2.2-15.5-3.6 7.3-7.9 12.4-10.8 15.5 3.6zM730.2 645.5c4.6 4.8 3.3 9.6-4.5 14.7 0-4.9 0-9.8 0.2-14.6 0-0.2 3.5-1 4.3-0.1zM288.7 652.5c5.8-1.7 10.2-2.9 14.5-4.2-5.9 10.9-5.9 10.9-14.5 4.2zM361.7 699c3.5 2.5 6.9 5 12 8.6-9.4 5.8-12.7 2.5-14.4-4.6 0.7-1.3 1.5-2.6 2.4-4zM146.7 706.5c-4.3 7.6-7.1 12.7-12.1 21.8 2.7-15.5 2.8-15.4 12.1-21.8zM635.4 703.7c-2.7 3.4-5.4 6.7-9.9 12.2-0.1-14.4-0.1-14.4 9.9-12.2zM242.1 618.8c5 3.7 9.1 6.8 16.1 12-13.8-1.9-13.8-1.9-16.1-12zM639.8 444.6c1.8 0.2 3.4 2.6 5 4.1-1.2 1.7-2.2 4.4-3.7 4.9-1.3 0.4-3.3-1.4-6.4-3 2.4-3 3.9-6.1 5.1-6zM515.1 379.4c3-0.4 6.1-1.2 9.1-0.9 0.7 0 1 4 1.5 6.2-3.2 0.3-6.3 0.5-9.5 0.8-0.3-2-0.7-4.1-1.1-6.1zM278.8 239.5c-2.3-1-4.7-2-7-3 1.3-3.2 2.7-6.5 4-9.7 1.6 0.6 3.3 1.2 4.9 1.7-0.6 3.7-1.2 7.4-1.9 11zM435 307.3c-0.2-1 1.6-2.6 2.4-3.9 1.8 1.9 4.1 3.5 5.2 5.8 0.5 1-1.7 3.5-3.7 7.4-2-4.5-3.4-6.8-3.9-9.3zM505 344.2c8 8.7 8 8.7-0.7 15.7 0.3-5.4 0.5-9.8 0.7-15.7zM493.5 729.9c1 1.3 2.1 2.6 3.1 3.8M117.2 407.2c-2.5 1.3-5.3 1.9-7.9 2.8-0.4-1.7-0.9-3.5-1.3-5.2 2.9-0.9 5.8-1.7 8.7-2.6 0.2 1.7 0.9 4.8 0.5 5zM253.2 720c0.7 2.2 0.2 4.9 0.2 7.3-0.8 0.1-1.6 0.2-2.3 0.4-1.4-3.5-2.7-7-4.1-10.5 0.7-0.5 1.3-1 2-1.5 1.4 1.3 3.6 2.5 4.2 4.3zM585.3 723.8c-1.2-0.8-2.4-1.5-3.5-2.3 1.6-3.3 3.1-6.6 4.7-10 1.1 0.7 2.1 1.3 3.2 2-0.3 1.7-0.4 3.6-1 5.2-1 1.8-2.3 3.4-3.4 5.1zM677.8 378.6c-0.3-1.8 1.4-4 2.9-7.8 2.2 3.3 4.2 5 4.2 6.7 0 1.9-1.9 3.8-3 5.6-1.5-1.5-3.8-2.8-4.1-4.5zM263.3 677.6c1-2.1 2.8-3.7 4.2-5.5 0.6 0.5 1.1 1 1.7 1.5-1 3.8-2.1 7.5-3.1 11.3-1.4-0.3-2.8-0.7-4.1-1 0.4-2.1 0.5-4.4 1.3-6.3zM93.3 391c0.3-1.1 0.5-2.1 0.8-3.2 2.8 0.6 5.6 1.2 8.5 1.9-0.6 1.6-1.1 3.2-1.6 4.8-2.6-1.2-5.1-2.4-7.7-3.5zM712.8 389.4c-5.1 2.5-8.5 4.2-14.2 7.1 3-10.2 7.2-9.7 14.2-7.1zM125.9 347l-1.2-4.8c2.9-0.9 5.8-1.7 8.6-2.6 0.3 1.2 0.6 2.3 0.9 3.5-2.7 1.3-5.5 2.6-8.3 3.9z" fill="#09A7AF" p-id="3824"></path><path d="M214.3 202.6l-20.1 26.1-4 54.6h467.6l-4.8-62-29.9-16.8-0.4-0.2 0.4 0.2 69.5-0.2 24.3 13.7-0.6-3.8-21.1-11.8H189.3l-72.2 0.2z" fill="#E8E8E8" p-id="3825"></path><path d="M160.9 688.7l3.7-51.2H70l-6.3 51.2 37.6 56.3h97.2l-8.5-3.2z" fill="#5FBED4" p-id="3826"></path><path d="M688.9 676.1l-3.1-38.6H164.6l-3.7 51.2 29.1 53.1 8.5 3.2H660l27-38.8z" fill="#3AB1CC" p-id="3827"></path><path d="M716.9 218l-24.3-13.7-69.5 0.2 29.9 16.8 4.8 62h69.7z" fill="#D5D5D5" p-id="3828"></path><path d="M190.2 283.3l4-54.6 20.1-26.1h-97.2l-19.9 25.8 3.4 54.9z" fill="#F2F0F0" p-id="3829"></path><path d="M174.712058 243.35571a2.6 2.6 0 1 0 3.409109-3.926573 2.6 2.6 0 1 0-3.409109 3.926573Z" fill="#686767" p-id="3830"></path><path d="M133.425502 227.295187a2.6 2.6 0 1 0 3.409109-3.926573 2.6 2.6 0 1 0-3.409109 3.926573Z" fill="#686767" p-id="3831"></path><path d="M248.338778 234.232017a2.6 2.6 0 1 0 0.665057-5.157296 2.6 2.6 0 1 0-0.665057 5.157296Z" fill="#686767" p-id="3832"></path><path d="M284.413274 254.71789a2.6 2.6 0 1 0 4.991471-1.457811 2.6 2.6 0 1 0-4.991471 1.457811Z" fill="#686767" p-id="3833"></path><path d="M382.723449 226.029023a2.6 2.6 0 1 0 4.991471-1.457812 2.6 2.6 0 1 0-4.991471 1.457812Z" fill="#686767" p-id="3834"></path><path d="M204.844729 263.026784a2.6 2.6 0 1 0 0.665057-5.157295 2.6 2.6 0 1 0-0.665057 5.157295Z" fill="#686767" p-id="3835"></path><path d="M120.309496 255.906309a2.6 2.6 0 1 0 5.166203-0.591902 2.6 2.6 0 1 0-5.166203 0.591902Z" fill="#686767" p-id="3836"></path><path d="M414.512241 241.512994a2.6 2.6 0 1 0 3.926513-3.409177 2.6 2.6 0 1 0-3.926513 3.409177Z" fill="#AEAFAF" p-id="3837"></path><path d="M341.622214 230.438232a2.6 2.6 0 1 0 5.157365-0.664517 2.6 2.6 0 1 0-5.157365 0.664517Z" fill="#AEAFAF" p-id="3838"></path><path d="M305.329983 255.014425a2.6 2.6 0 1 0 1.458073-4.991395 2.6 2.6 0 1 0-1.458073 4.991395Z" fill="#AEAFAF" p-id="3839"></path><path d="M309.361841 223.01753a2.6 2.6 0 1 0 1.458074-4.991395 2.6 2.6 0 1 0-1.458074 4.991395Z" fill="#AEAFAF" p-id="3840"></path><path d="M206.917455 226.210322a2.6 2.6 0 1 0 1.458073-4.991395 2.6 2.6 0 1 0-1.458073 4.991395Z" fill="#AEAFAF" p-id="3841"></path><path d="M153.69604 273.398591a2.6 2.6 0 1 0 3.409109-3.926573 2.6 2.6 0 1 0-3.409109 3.926573Z" fill="#686767" p-id="3842"></path><path d="M403.015919 272.126381a2.6 2.6 0 1 0 4.991471-1.457812 2.6 2.6 0 1 0-4.991471 1.457812Z" fill="#686767" p-id="3843"></path><path d="M361.917939 276.537608a2.6 2.6 0 1 0 5.157366-0.664517 2.6 2.6 0 1 0-5.157366 0.664517Z" fill="#AEAFAF" p-id="3844"></path><path d="M329.719438 269.156358a2.6 2.6 0 1 0 1.458073-4.991394 2.6 2.6 0 1 0-1.458073 4.991394Z" fill="#AEAFAF" p-id="3845"></path><path d="M227.275052 272.349151a2.6 2.6 0 1 0 1.458073-4.991395 2.6 2.6 0 1 0-1.458073 4.991395Z" fill="#AEAFAF" p-id="3846"></path><path d="M463.4 230.3m-2.6 0a2.6 2.6 0 1 0 5.2 0 2.6 2.6 0 1 0-5.2 0Z" fill="#686767" p-id="3847"></path><path d="M495.906083 230.35661a2.6 2.6 0 1 0 3.409109-3.926573 2.6 2.6 0 1 0-3.409109 3.926573Z" fill="#686767" p-id="3848"></path><path d="M610.852937 237.373842a2.6 2.6 0 1 0 0.665057-5.157296 2.6 2.6 0 1 0-0.665057 5.157296Z" fill="#686767" p-id="3849"></path><path d="M646.815316 257.814165a2.6 2.6 0 1 0 4.991471-1.457812 2.6 2.6 0 1 0-4.991471 1.457812Z" fill="#686767" p-id="3850"></path><path d="M606.346216 261.274476a2.6 2.6 0 1 0 0.665057-5.157296 2.6 2.6 0 1 0-0.665057 5.157296Z" fill="#686767" p-id="3851"></path><path d="M567.260581 266.156812a2.6 2.6 0 1 0 0.665057-5.157296 2.6 2.6 0 1 0-0.665057 5.157296Z" fill="#686767" p-id="3852"></path><path d="M482.812329 259.009916a2.6 2.6 0 1 0 5.166202-0.591903 2.6 2.6 0 1 0-5.166202 0.591903Z" fill="#686767" p-id="3853"></path><path d="M446.011187 255.11592a2.6 2.6 0 1 0 5.166203-0.591903 2.6 2.6 0 1 0-5.166203 0.591903Z" fill="#686767" p-id="3854"></path><path d="M704.026482 233.544759a2.6 2.6 0 1 0 5.157365-0.664517 2.6 2.6 0 1 0-5.157365 0.664517Z" fill="#AEAFAF" p-id="3855"></path><path d="M637.695666 244.544649a2.6 2.6 0 1 0 1.458074-4.991395 2.6 2.6 0 1 0-1.458074 4.991395Z" fill="#AEAFAF" p-id="3856"></path><path d="M667.78369 258.048673a2.6 2.6 0 1 0 1.458073-4.991395 2.6 2.6 0 1 0-1.458073 4.991395Z" fill="#AEAFAF" p-id="3857"></path><path d="M671.783429 226.146326a2.6 2.6 0 1 0 1.458074-4.991395 2.6 2.6 0 1 0-1.458074 4.991395Z" fill="#AEAFAF" p-id="3858"></path><path d="M569.44007 229.36788a2.6 2.6 0 1 0 1.458073-4.991395 2.6 2.6 0 1 0-1.458073 4.991395Z" fill="#AEAFAF" p-id="3859"></path><path d="M602.724811 224.538707a2.6 2.6 0 1 0 5.157365-0.664517 2.6 2.6 0 1 0-5.157365 0.664517Z" fill="#AEAFAF" p-id="3860"></path><path d="M516.177032 276.458914a2.6 2.6 0 1 0 3.409109-3.926573 2.6 2.6 0 1 0-3.409109 3.926573Z" fill="#686767" p-id="3861"></path><path d="M631.110854 283.487984a2.6 2.6 0 1 0 0.665057-5.157296 2.6 2.6 0 1 0-0.665057 5.157296Z" fill="#686767" p-id="3862"></path><path d="M692.141026 272.285155a2.6 2.6 0 1 0 1.458073-4.991395 2.6 2.6 0 1 0-1.458073 4.991395Z" fill="#AEAFAF" p-id="3863"></path><path d="M589.701438 275.480348a2.6 2.6 0 1 0 1.458073-4.991395 2.6 2.6 0 1 0-1.458073 4.991395Z" fill="#AEAFAF" p-id="3864"></path><path d="M447.14236 281.178189a2.6 2.6 0 1 0 4.912426-1.705306 2.6 2.6 0 1 0-4.912426 1.705306Z" fill="#AEAFAF" p-id="3865"></path><path d="M649 835.1H173.8c-12.5 0-24.3-5.5-32.3-15.1l-73-88.8c-0.2-0.2-0.3-0.4-0.5-0.6l-6.5-9.1c-0.3-0.4-0.5-0.7-0.7-1.1-7-12.4-10.1-26.4-9.1-40.6L85 227.9c1.6-21.8 20-38.9 41.9-38.9h125.3c6.6 0 12 5.4 12 12s-5.4 12-12 12H126.9c-9.4 0-17.3 7.3-18 16.7L75.7 681.5c-0.7 9.3 1.3 18.4 5.7 26.5l5.9 8.2 72.7 88.5c3.4 4.1 8.4 6.4 13.8 6.4H649c5.3 0 10.4-2.3 13.8-6.4l76.5-93.6 2.6-4.1c4-7.8 5.8-16.6 5.1-25.4l-33.2-451.8c-0.7-9.4-8.6-16.7-18-16.7H374.2c-6.6 0-12-5.4-12-12s5.4-12 12-12h321.6c21.9 0 40.3 17.1 41.9 38.9L771 679.7c1 13.4-1.8 26.8-8 38.7-0.1 0.3-0.3 0.5-0.4 0.7l-3.2 5.2c-0.3 0.4-0.6 0.9-0.9 1.3l-77.1 94.3s0 0.1-0.1 0.1c-8.1 9.5-19.8 15.1-32.3 15.1z" fill="#3D6072" p-id="3866"></path><path d="M771.7 660.8h-11.1c-7.2 0-13-5.8-13-13s5.8-13 13-13h11.1c22.2 0 40.9-7.1 55.6-21 13.7-13.1 23.7-32.2 29-55.2 0-0.2 0.1-0.4 0.1-0.6 0.1-0.5 13.5-49.5 18.5-77.1 0.9-5.1 0.6-13.2 0.1-18.6-4.1-41.4-39.3-71.5-83.8-71.5h-50c-7.2 0-13-5.8-13-13s5.8-13 13-13h50c58.1 0 104.2 39.9 109.6 94.9 0.5 4.6 1.3 16.2-0.4 25.7-5 28-17.7 74.7-18.9 79.1-6.4 28-18.9 51.5-36.3 68-19.4 18.5-44.8 28.3-73.5 28.3zM549.9 756.7H134.6c-25.8 0-50.8-10.7-68.6-29.3-4.6-4.8-4.4-12.4 0.4-17s12.4-4.4 17 0.4c13.3 13.9 32 21.9 51.2 21.9h415.3c6.6 0 12 5.4 12 12s-5.3 12-12 12zM693.1 756.7h-87.3c-6.6 0-12-5.4-12-12s5.4-12 12-12h87.3c18.2 0 35.2-8.1 46.6-22.3 4.2-5.2 11.7-6 16.9-1.8 5.2 4.2 6 11.7 1.8 16.9-16 19.9-39.8 31.2-65.3 31.2z" fill="#3D6072" p-id="3867"></path><path d="M271.071731 785.803293a2.6 2.6 0 1 0 3.409109-3.926574 2.6 2.6 0 1 0-3.409109 3.926574Z" fill="#686767" p-id="3868"></path><path d="M146.698663 766.508341a2.6 2.6 0 1 0 3.409109-3.926573 2.6 2.6 0 1 0-3.409109 3.926573Z" fill="#686767" p-id="3869"></path><path d="M229.852723 769.663616a2.6 2.6 0 1 0 3.409109-3.926573 2.6 2.6 0 1 0-3.409109 3.926573Z" fill="#686767" p-id="3870"></path><path d="M344.821165 776.68771a2.6 2.6 0 1 0 0.665057-5.157295 2.6 2.6 0 1 0-0.665057 5.157295Z" fill="#686767" p-id="3871"></path><path d="M291.089411 767.657598a2.6 2.6 0 1 0 0.665056-5.157296 2.6 2.6 0 1 0-0.665056 5.157296Z" fill="#686767" p-id="3872"></path><path d="M479.228411 768.407715a2.6 2.6 0 1 0 4.991471-1.457812 2.6 2.6 0 1 0-4.991471 1.457812Z" fill="#686767" p-id="3873"></path><path d="M523.032779 773.122252a2.6 2.6 0 1 0 4.991472-1.457811 2.6 2.6 0 1 0-4.991472 1.457811Z" fill="#686767" p-id="3874"></path><path d="M548.926813 784.530544a2.6 2.6 0 1 0 4.991472-1.457812 2.6 2.6 0 1 0-4.991472 1.457812Z" fill="#686767" p-id="3875"></path><path d="M432.708922 805.459786a2.6 2.6 0 1 0 0.665056-5.157295 2.6 2.6 0 1 0-0.665056 5.157295Z" fill="#686767" p-id="3876"></path><path d="M484.007314 796.711958a2.6 2.6 0 1 0 0.665057-5.157296 2.6 2.6 0 1 0-0.665057 5.157296Z" fill="#686767" p-id="3877"></path><path d="M635.995601 802.848637a2.6 2.6 0 1 0 0.665056-5.157295 2.6 2.6 0 1 0-0.665056 5.157295Z" fill="#686767" p-id="3878"></path><path d="M664.413414 770.136381a2.6 2.6 0 1 0 1.705049-4.912515 2.6 2.6 0 1 0-1.705049 4.912515Z" fill="#686767" p-id="3879"></path><path d="M621.536976 777.449499a2.6 2.6 0 1 0 1.705048-4.912515 2.6 2.6 0 1 0-1.705048 4.912515Z" fill="#686767" p-id="3880"></path><path d="M446.160751 767.623005a2.6 2.6 0 1 0 0.665057-5.157296 2.6 2.6 0 1 0-0.665057 5.157296Z" fill="#686767" p-id="3881"></path><path d="M340.314445 800.588344a2.6 2.6 0 1 0 0.665057-5.157296 2.6 2.6 0 1 0-0.665057 5.157296Z" fill="#686767" p-id="3882"></path><path d="M216.689017 798.317642a2.6 2.6 0 1 0 5.166202-0.591902 2.6 2.6 0 1 0-5.166202 0.591902Z" fill="#686767" p-id="3883"></path><path d="M179.998721 794.511607a2.6 2.6 0 1 0 5.166203-0.591903 2.6 2.6 0 1 0-5.166203 0.591903Z" fill="#686767" p-id="3884"></path><path d="M511.048485 783.918022a2.6 2.6 0 1 0 3.926514-3.409177 2.6 2.6 0 1 0-3.926514 3.409177Z" fill="#AEAFAF" p-id="3885"></path><path d="M635.366442 764.668094a2.6 2.6 0 1 0 3.926514-3.409178 2.6 2.6 0 1 0-3.926514 3.409178Z" fill="#AEAFAF" p-id="3886"></path><path d="M552.250485 767.855377a2.6 2.6 0 1 0 3.926514-3.409178 2.6 2.6 0 1 0-3.926514 3.409178Z" fill="#AEAFAF" p-id="3887"></path><path d="M371.656312 783.868154a2.6 2.6 0 1 0 1.458074-4.991395 2.6 2.6 0 1 0-1.458074 4.991395Z" fill="#AEAFAF" p-id="3888"></path><path d="M401.712936 797.473685a2.6 2.6 0 1 0 1.458073-4.991395 2.6 2.6 0 1 0-1.458073 4.991395Z" fill="#AEAFAF" p-id="3889"></path><path d="M405.840783 765.498831a2.6 2.6 0 1 0 1.458074-4.991395 2.6 2.6 0 1 0-1.458074 4.991395Z" fill="#AEAFAF" p-id="3890"></path><path d="M303.396396 768.697622a2.6 2.6 0 1 0 1.458073-4.991395 2.6 2.6 0 1 0-1.458073 4.991395Z" fill="#AEAFAF" p-id="3891"></path><path d="M233.628782 784.822822a2.6 2.6 0 1 0 1.458073-4.991395 2.6 2.6 0 1 0-1.458073 4.991395Z" fill="#AEAFAF" p-id="3892"></path><path d="M298.916116 792.941189a2.6 2.6 0 1 0 5.157365-0.664516 2.6 2.6 0 1 0-5.157365 0.664516Z" fill="#AEAFAF" p-id="3893"></path><path d="M160.822711 774.367674a2.6 2.6 0 1 0 4.912426-1.705306 2.6 2.6 0 1 0-4.912426 1.705306Z" fill="#AEAFAF" p-id="3894"></path><path d="M442.520671 796.84218a2.6 2.6 0 1 0 5.157365-0.664516 2.6 2.6 0 1 0-5.157365 0.664516Z" fill="#AEAFAF" p-id="3895"></path><path d="M566.083837 799.070622a2.6 2.6 0 1 0 0.592264-5.166162 2.6 2.6 0 1 0-0.592264 5.166162Z" fill="#AEAFAF" p-id="3896"></path><path d="M344.5 520.5h-34.2c-17 0-30.8-13.8-30.8-30.8v-90.9c0-17 13.8-30.8 30.8-30.8h34.2c17 0 30.8 13.8 30.8 30.8v90.9c0.1 17-13.7 30.8-30.8 30.8z" fill="#FFFFFF" p-id="3897"></path><path d="M344.5 532.5h-34.2c-23.6 0-42.8-19.2-42.8-42.8v-90.9c0-23.6 19.2-42.8 42.8-42.8h34.2c23.6 0 42.8 19.2 42.8 42.8v90.9c0.1 23.6-19.2 42.8-42.8 42.8zM310.3 380c-10.4 0-18.8 8.4-18.8 18.8v90.9c0 10.4 8.4 18.8 18.8 18.8h34.2c10.4 0 18.8-8.4 18.8-18.8v-90.9c0-10.4-8.4-18.8-18.8-18.8h-34.2z" fill="#3D6072" p-id="3898"></path><path d="M928.6 595l-60.1-8.3c-11.6-1.6-19.8-12.3-18.1-24l14-101.5c1.6-11.6 12.3-19.8 24-18.1l60.1 8.3c11.6 1.6 19.8 12.3 18.1 24l-14 101.5c-1.6 11.6-12.3 19.7-24 18.1z" fill="#EAD9C3" p-id="3899"></path><path d="M928.2 607.9l-3-0.3-56.7-7.8c-9.5-1.3-17.9-6.2-23.7-13.9-5.8-7.6-8.3-17.1-6.9-26.6l13.6-98.2c2.7-19.6 20.9-33.4 40.5-30.7l56.7 7.8c9.5 1.3 17.9 6.2 23.7 13.9 5.8 7.6 8.3 17.1 6.9 26.6l-13.6 98.2c-1.3 9.5-6.2 17.9-13.9 23.7-6.9 5.2-15.2 7.8-23.6 7.3z m0.5-26c5.5 0.8 10.5-3.1 11.3-8.5l13.6-98.2c0.4-2.6-0.3-5.3-1.9-7.4-1.6-2.1-4-3.5-6.6-3.9l-56.7-7.8c-5.5-0.7-10.5 3.1-11.3 8.5l-13.6 98.2c-0.4 2.6 0.3 5.3 1.9 7.4 1.6 2.1 4 3.5 6.6 3.9l56.7 7.8z" fill="#3D6072" p-id="3900"></path><path d="M897.576656 507.472816a2.8 2.8 0 1 0 0.716215-5.55401 2.8 2.8 0 1 0-0.716215 5.55401Z" fill="#686767" p-id="3901"></path><path d="M849.960469 502.009287a2.8 2.8 0 1 0 4.849742-2.8 2.8 2.8 0 1 0-4.849742 2.8Z" fill="#686767" p-id="3902"></path><path d="M928.362171 472.199474a2.8 2.8 0 1 0 1.836206-5.290402 2.8 2.8 0 1 0-1.836206 5.290402Z" fill="#686767" p-id="3903"></path><path d="M882.087405 480.082944a2.8 2.8 0 1 0 1.836207-5.290402 2.8 2.8 0 1 0-1.836207 5.290402Z" fill="#686767" p-id="3904"></path><path d="M852.9 478.1c2-0.4 3.7 1.3 3.3 3.3-0.2 1.1-1.1 2-2.2 2.2-2 0.4-3.7-1.3-3.3-3.3 0.2-1 1.1-1.9 2.2-2.2z" fill="#AEAFAF" p-id="3905"></path><path d="M896.933027 466.19264a2.8 2.8 0 1 0 4.228553-3.671422 2.8 2.8 0 1 0-4.228553 3.671422Z" fill="#AEAFAF" p-id="3906"></path><path d="M861.851337 499.208422a2.8 2.8 0 1 0 0.637822-5.563559 2.8 2.8 0 1 0-0.637822 5.563559Z" fill="#AEAFAF" p-id="3907"></path><path d="M923.024861 568.521636a2.8 2.8 0 1 0 0.716214-5.554011 2.8 2.8 0 1 0-0.716214 5.554011Z" fill="#686767" p-id="3908"></path><path d="M85.988 686.235l10.111-10.111 10.112 10.111-10.112 10.112zM165.106 686.281l10.111-10.111 10.112 10.111-10.112 10.112zM323.483 686.234l10.111-10.112 10.112 10.112-10.112 10.111zM244.294 686.258l10.111-10.111 10.112 10.111-10.112 10.112zM402.602 686.277l10.111-10.111 10.112 10.111-10.112 10.112zM640.098 686.276l10.111-10.111 10.112 10.111-10.112 10.112zM481.79 686.252l10.112-10.111 10.112 10.111-10.112 10.112zM560.909 686.3l10.111-10.11 10.112 10.11-10.112 10.112zM719.287 686.254l10.112-10.111 10.111 10.111-10.111 10.112z" fill="#E8E8E8" p-id="3909"></path><path d="M875.335397 563.011718a2.8 2.8 0 1 0 4.849742-2.8 2.8 2.8 0 1 0-4.849742 2.8Z" fill="#686767" p-id="3910"></path><path d="M870.211831 531.778818a2.8 2.8 0 1 0 0.716215-5.554011 2.8 2.8 0 1 0-0.716215 5.554011Z" fill="#686767" p-id="3911"></path><path d="M907.438299 541.10792a2.8 2.8 0 1 0 1.836207-5.290402 2.8 2.8 0 1 0-1.836207 5.290402Z" fill="#686767" p-id="3912"></path><path d="M878.3 539.2c2-0.4 3.7 1.3 3.3 3.3-0.2 1.1-1.1 2-2.2 2.2-2 0.4-3.7-1.3-3.3-3.3 0.2-1.1 1.1-2 2.2-2.2z" fill="#AEAFAF" p-id="3913"></path><path d="M922.367371 527.274581a2.8 2.8 0 1 0 4.228553-3.671422 2.8 2.8 0 1 0-4.228553 3.671422Z" fill="#AEAFAF" p-id="3914"></path><path d="M847.528675 564.475013a2.8 2.8 0 1 0 0.637822-5.563558 2.8 2.8 0 1 0-0.637822 5.563558Z" fill="#AEAFAF" p-id="3915"></path><path d="M904.54586 458.473517a2.8 2.8 0 1 0 0.716215-5.554011 2.8 2.8 0 1 0-0.716215 5.554011Z" fill="#686767" p-id="3916"></path><path d="M856.529463 554.963065a2.8 2.8 0 1 0 5.37543-1.569951 2.8 2.8 0 1 0-5.37543 1.569951Z" fill="#686767" p-id="3917"></path><path d="M885.836447 543.476071a2.8 2.8 0 1 0 5.554086-0.715634 2.8 2.8 0 1 0-5.554086 0.715634Z" fill="#AEAFAF" p-id="3918"></path><path d="M846.657584 569.924633a2.8 2.8 0 1 0 1.570233-5.375349 2.8 2.8 0 1 0-1.570233 5.375349Z" fill="#F2F4F4" p-id="3919"></path><path d="M851.051109 535.409996a2.8 2.8 0 1 0 1.570233-5.375349 2.8 2.8 0 1 0-1.570233 5.375349Z" fill="#F2F4F4" p-id="3920"></path><path d="M890.627637 569.276764a2.8 2.8 0 1 0 5.554086-0.715633 2.8 2.8 0 1 0-5.554086 0.715633Z" fill="#AEAFAF" p-id="3921"></path><path d="M919.941944 598.849064a2.8 2.8 0 1 0 0.716215-5.55401 2.8 2.8 0 1 0-0.716215 5.55401Z" fill="#686767" p-id="3922"></path><path d="M932.407527 504.049817a2.8 2.8 0 1 0 5.563603-0.637434 2.8 2.8 0 1 0-5.563603 0.637434Z" fill="#686767" p-id="3923"></path><path d="M937.819753 499.25013a2.8 2.8 0 1 0 5.290305-1.836484 2.8 2.8 0 1 0-5.290305 1.836484Z" fill="#AEAFAF" p-id="3924"></path><path d="M960.7 499.5c-0.2 0-0.3 0-0.5-0.1l-91.7-13.1c-3.5-0.5-6-3.8-5.5-7.3s3.8-6 7.3-5.5l91.7 13.1c3.5 0.5 6 3.8 5.5 7.3-0.5 3.4-3.5 5.8-6.8 5.6zM956 533.4c-0.2 0-0.3 0-0.5-0.1l-91.7-13.1c-3.5-0.5-6-3.8-5.5-7.3s3.8-6 7.3-5.5l91.7 13.1c3.5 0.5 6 3.8 5.5 7.3-0.4 3.4-3.4 5.8-6.8 5.6zM955.6 564.4c-0.2 0-0.3 0-0.5-0.1l-91.7-13.1c-3.5-0.5-6-3.8-5.5-7.3s3.8-6 7.3-5.5l91.7 13.1c3.5 0.5 6 3.8 5.5 7.3-0.5 3.4-3.5 5.8-6.8 5.6z" fill="#3D6072" p-id="3925"></path><path d="M928.2 607.8l-3-0.3-56.7-7.8c-9.5-1.3-17.9-6.2-23.7-13.9-5.8-7.6-8.3-17.1-7-26.6l13.5-98.2c1.3-9.5 6.2-17.9 13.9-23.7 7.6-5.8 17.1-8.3 26.6-7l56.7 7.8c9.5 1.3 17.9 6.2 23.7 13.9 5.8 7.6 8.3 17.1 7 26.6l-13.5 98.2c-1.3 9.5-6.2 17.9-13.9 23.7-6.8 5.3-15.1 7.8-23.6 7.3z m0.6-25.9c2.6 0.4 5.3-0.3 7.4-1.9 2.1-1.6 3.5-4 3.9-6.6l13.5-98.2c0.4-2.6-0.3-5.3-1.9-7.4-1.6-2.1-4-3.5-6.6-3.9l-56.7-7.8c-2.6-0.4-5.3 0.3-7.4 1.9-2.1 1.6-3.5 4-3.9 6.6l-13.5 98.2c-0.4 2.6 0.3 5.3 1.9 7.4 1.6 2.1 4 3.5 6.6 3.9l56.7 7.8zM329.4 379.3c-6.6 0-12-5.4-12-12V250.9c0-21-17-38-38-38h-94.7c-6.6 0-12-5.4-12-12s5.4-12 12-12h94.7c34.2 0 62 27.8 62 62v116.4c0 6.6-5.4 12-12 12z" fill="#3D6072" p-id="3926"></path></svg>