<?xml version="1.0" standalone="no"?><!DOCTYPE svg PUBLIC "-//W3C//DTD SVG 1.1//EN" "http://www.w3.org/Graphics/SVG/1.1/DTD/svg11.dtd"><svg t="1542036551746" class="icon" style="" viewBox="0 0 1024 1024" version="1.1" xmlns="http://www.w3.org/2000/svg" p-id="8774" xmlns:xlink="http://www.w3.org/1999/xlink" width="128" height="128"><defs><style type="text/css"></style></defs><path d="M494.69 869.81A350.15 350.15 0 0 1 352.25 843 134.7 134.7 0 0 0 281 833c-56.68 8.57-103.3-33.58-95.53-89.68a250.57 250.57 0 0 0-9.56-102.54c-37.06-136.22-1-257 77.5-370.3S417.4 141 532.35 183.63c168.74 62.58 282.19 182.26 327.92 358.74 21.31 82.41 1.19 154.25-68.34 211.35-89.25 73.64-190.85 115.9-297.24 116.09z" fill="#0D8237" p-id="8775"></path><path d="M845 597.77c-1 115.4-89 180.77-208.56 147.58-179.3-49.82-295.94-168-350.73-346a183.85 183.85 0 0 1-5.48-89.19c17.43-89.68 88.26-136.82 182.29-121.07 122.92 20.72 215.36 90.18 291 184.85 44.13 55.2 76.4 116.69 87.46 187.64 2.35 12.08 2.35 24.13 4.02 36.19z" fill="#FFFFFF" p-id="8776"></path><path d="M536.43 525.53c-5 21.32-1.59 48.33-10.76 74.23-5.28 15-13.64 17.94-24.6 10.47a300.63 300.63 0 0 1-81.68-81.72c-7.57-11.45-4.09-19.43 9.36-23.41 20.92-6.28 41.64-13 62.36-19.93 35.76-11.36 46.81-2.79 45.32 40.36zM595.8 403.45c4.38-21.62 1.39-48.82 10.86-74.63 5.47-14.95 13.84-17.34 25.6-9.07a331.75 331.75 0 0 1 78.89 78.52c9.16 12.76 6.27 22.13-10 26.81-19.93 5.68-39.85 13.25-59.77 19.33-37.11 10.96-47.08 2.59-45.58-40.96zM731 453.18a51.33 51.33 0 0 1 33.47 35.47 476.63 476.63 0 0 1 14.94 58.7c3 15.24-3.58 22.92-19 15.15-44.13-22-88-44.85-132.09-67a12.35 12.35 0 0 1-8.56-12.75c0-7.58 6.37-8.87 11.45-10.77a237.91 237.91 0 0 1 99.79-18.8zM552.17 619.79c3.19-36.57 5.58-64 8.07-91.38 0-4.48-1.3-10 4.38-12.65a11.15 11.15 0 0 1 12.75 5C608.25 566.08 643 609.13 665 660.25c6.07 14.15-1 20.83-15 17.64a491.26 491.26 0 0 1-65.65-18.24 46.72 46.72 0 0 1-32.18-39.86zM579.66 319.05c-2.59 27.4-5.08 54.71-7.87 82.11 0 4.49 1.3 10.86-4.68 12.36s-11.85-4.29-15.44-9.47a1166.64 1166.64 0 0 1-68.33-103.14c-5.88-10.56-11.76-21.22-16.64-32.28s-0.59-19.93 11.16-17.44c26.7 5.68 55 8 78.59 22.82a45.23 45.23 0 0 1 23.21 45.04zM425.66 475.6c-30.78 2-46.51-6.18-56.68-33.78a493.36 493.36 0 0 1-16.23-61.09c-2.89-12.25 5.38-18.63 15.24-14 46.82 22.32 93.43 45.24 139.45 69.76 12 6.48 5.28 16.94-6.17 20.72-25 8.43-48.81 19.69-75.61 18.39zM609.45 512.87c49.8 24.51 101.9 47 144.93 84.3 15.64 13.66 17.23 29.9 0.7 46-25 24.81-35.66 28-54.79 11.06-14.84-12.95-23.11-31-34.07-46.93-20.62-29.9-40.94-59.79-61.46-89.69zM522.39 416.31c-48.32-23.82-98-45.44-140.16-80.32-21.61-17.84-21.91-32.48-3.78-50.82 25.1-25.51 41-28.3 58.17-5.28 31.68 42.85 60.76 87.59 90.85 131.54zM595.5 480.88c1.1 11.36-5.08 14.75-16.14 13.16-16.33-2.5-39.84-25.91-42.53-42.26-1.69-10.76 1.19-17.23 13.75-16.64 18.03 1 43.72 26.86 44.92 45.74z" fill="#25663F" p-id="8777"></path></svg>