<?xml version="1.0" standalone="no"?><!DOCTYPE svg PUBLIC "-//W3C//DTD SVG 1.1//EN" "http://www.w3.org/Graphics/SVG/1.1/DTD/svg11.dtd"><svg t="1542036530413" class="icon" style="" viewBox="0 0 1036 1024" version="1.1" xmlns="http://www.w3.org/2000/svg" p-id="6513" xmlns:xlink="http://www.w3.org/1999/xlink" width="129.5" height="128"><defs><style type="text/css"></style></defs><path d="M105.78512 148.8s-128 195.2-102.4 382.4S139.38512 955.2 556.98512 980.8c0 0 264 0 467.2-297.6L105.78512 148.8z" fill="#093B06" p-id="6514"></path><path d="M115.38512 160S-9.41488 350.4 16.18512 532.8s132.8 414.4 539.2 438.4c0 0 257.6 0 456-289.6L115.38512 160z" fill="#057E0D" p-id="6515"></path><path d="M136.18512 180.8S17.78512 361.6 41.78512 534.4s126.4 392 512 416c0 0 243.2 0 433.6-275.2L136.18512 180.8z" fill="#FBFBFB" p-id="6516"></path><path d="M841.78512 577.6L816.18512 560s-17.6-25.6-43.2-33.6c-6.4-1.6-25.6-4.8-33.6-8L620.98512 441.6c-59.2-46.4-144-105.6-169.6-110.4-16-3.2-59.2-22.4-102.4-43.2L152.18512 171.2S27.38512 364.8 49.78512 534.4C72.18512 704 172.98512 920 552.18512 944c0 0 248-9.6 433.6-280l-144-86.4z" fill="#FF4F40" p-id="6517"></path><path d="M217.78512 264c6.4 1.6 20.8 8 19.2 16s-16 11.2-22.4 9.6-11.2-8-11.2-14.4c1.6-8 8-12.8 14.4-11.2z" fill="#333333" p-id="6518"></path><path d="M219.38512 267.2c4.8 0 12.8 6.4 12.8 11.2s-11.2 6.4-16 6.4c-4.8 0-8-4.8-8-9.6 1.6-4.8 6.4-8 11.2-8zM204.98512 401.6c6.4-1.6 22.4 0 24 8 1.6 6.4-11.2 16-17.6 17.6-6.4 1.6-14.4-3.2-16-9.6-1.6-8 1.6-14.4 9.6-16z" fill="#333333" p-id="6519"></path><path d="M206.58512 404.8c4.8-1.6 14.4 0 16 4.8s-6.4 11.2-11.2 11.2c-4.8 1.6-9.6-1.6-9.6-6.4-1.6-3.2 0-8 4.8-9.6zM366.58512 468.8c6.4-1.6 22.4 0 24 8s-11.2 16-17.6 17.6c-6.4 1.6-14.4-3.2-16-9.6s1.6-14.4 9.6-16z" fill="#333333" p-id="6520"></path><path d="M368.18512 473.6c4.8-1.6 14.4 0 16 4.8 1.6 4.8-6.4 11.2-11.2 11.2-4.8 1.6-9.6-1.6-9.6-6.4-1.6-4.8 0-9.6 4.8-9.6zM475.38512 435.2c6.4-1.6 22.4-1.6 24 4.8s-9.6 16-16 19.2c-6.4 1.6-14.4-1.6-16-8-1.6-6.4 1.6-12.8 8-16z" fill="#333333" p-id="6521"></path><path d="M478.58512 440c4.8-1.6 14.4 0 16 3.2s-6.4 11.2-11.2 12.8-9.6-1.6-11.2-4.8c0-6.4 1.6-11.2 6.4-11.2zM278.58512 547.2c6.4-3.2 22.4-4.8 24 1.6 3.2 6.4-8 17.6-14.4 20.8s-14.4 0-17.6-6.4c0-4.8 1.6-12.8 8-16z" fill="#333333" p-id="6522"></path><path d="M281.78512 550.4c4.8-1.6 14.4-3.2 16 1.6 1.6 4.8-4.8 11.2-9.6 14.4s-9.6 0-11.2-3.2 0-11.2 4.8-12.8zM401.78512 556.8c1.6-6.4 12.8-17.6 19.2-16 6.4 1.6 8 17.6 4.8 24-1.6 6.4-9.6 9.6-16 8-6.4-1.6-9.6-9.6-8-16z" fill="#333333" p-id="6523"></path><path d="M406.58512 556.8c1.6-4.8 8-12.8 12.8-11.2 4.8 1.6 4.8 11.2 3.2 16s-6.4 6.4-11.2 4.8c-3.2 0-6.4-4.8-4.8-9.6zM360.18512 667.2c1.6-6.4 12.8-17.6 19.2-16s8 17.6 4.8 24c-1.6 6.4-9.6 9.6-16 8-6.4-1.6-11.2-9.6-8-16z" fill="#333333" p-id="6524"></path><path d="M364.98512 667.2c1.6-4.8 8-12.8 12.8-11.2 4.8 1.6 4.8 11.2 3.2 16-1.6 4.8-6.4 6.4-11.2 4.8s-6.4-4.8-4.8-9.6zM454.58512 721.6c0-6.4 6.4-20.8 14.4-20.8 6.4 0 12.8 14.4 11.2 22.4s-6.4 12.8-12.8 12.8c-8-1.6-14.4-6.4-12.8-14.4z" fill="#333333" p-id="6525"></path><path d="M457.78512 720c0-4.8 4.8-14.4 9.6-14.4s8 9.6 8 14.4c0 4.8-4.8 8-9.6 8s-8-3.2-8-8zM590.58512 747.2c0-6.4 6.4-20.8 14.4-20.8 6.4 0 12.8 14.4 11.2 22.4 0 6.4-6.4 12.8-12.8 12.8-8-1.6-14.4-8-12.8-14.4z" fill="#333333" p-id="6526"></path><path d="M593.78512 745.6c0-4.8 4.8-14.4 9.6-14.4s8 9.6 8 14.4c0 4.8-4.8 8-9.6 8s-8-3.2-8-8z" fill="#333333" p-id="6527"></path><path d="M675.38512 724.8c-1.6-6.4 3.2-22.4 9.6-22.4s14.4 12.8 16 19.2c1.6 6.4-3.2 12.8-11.2 14.4-6.4 0-12.8-4.8-14.4-11.2z" fill="#333333" p-id="6528"></path><path d="M680.18512 721.6c0-4.8 1.6-14.4 6.4-16s9.6 8 11.2 12.8-3.2 9.6-8 9.6c-4.8 1.6-9.6-1.6-9.6-6.4z" fill="#333333" p-id="6529"></path><path d="M830.58512 649.6c-1.6-6.4-1.6-22.4 4.8-24 6.4-1.6 16 9.6 19.2 16s-1.6 14.4-8 16-14.4-1.6-16-8z" fill="#333333" p-id="6530"></path><path d="M833.78512 646.4c-1.6-4.8-1.6-14.4 3.2-16 4.8-1.6 11.2 6.4 12.8 11.2s-1.6 9.6-4.8 11.2c-4.8 1.6-9.6-1.6-11.2-6.4z" fill="#333333" p-id="6531"></path><path d="M702.58512 616c-1.6-6.4-1.6-22.4 4.8-24 6.4-1.6 16 9.6 19.2 16 1.6 6.4-1.6 14.4-8 16s-14.4-1.6-16-8z" fill="#333333" p-id="6532"></path><path d="M705.78512 612.8c-1.6-4.8-1.6-14.4 3.2-16 4.8-1.6 11.2 6.4 12.8 11.2s-1.6 9.6-4.8 11.2c-4.8 1.6-9.6-1.6-11.2-6.4z" fill="#333333" p-id="6533"></path><path d="M643.38512 539.2c-1.6-6.4-1.6-22.4 4.8-24 6.4-1.6 16 9.6 19.2 16 1.6 6.4-1.6 14.4-8 16s-14.4-1.6-16-8z" fill="#333333" p-id="6534"></path><path d="M646.58512 536c-1.6-4.8-1.6-14.4 3.2-16 4.8-1.6 11.2 6.4 12.8 11.2s-1.6 9.6-4.8 11.2c-4.8 1.6-9.6-1.6-11.2-6.4z" fill="#333333" p-id="6535"></path><path d="M624.18512 628.8c0-6.4 6.4-20.8 12.8-20.8s12.8 14.4 12.8 22.4c0 6.4-6.4 12.8-12.8 12.8-8-1.6-12.8-8-12.8-14.4z" fill="#333333" p-id="6536"></path><path d="M628.98512 627.2c0-4.8 4.8-14.4 9.6-14.4s8 9.6 8 14.4-4.8 8-8 8c-6.4 0-9.6-3.2-9.6-8z" fill="#333333" p-id="6537"></path><path d="M521.78512 614.4c3.2-6.4 14.4-16 20.8-14.4s4.8 17.6 3.2 24-11.2 9.6-17.6 6.4c-6.4-1.6-9.6-9.6-6.4-16z" fill="#333333" p-id="6538"></path><path d="M526.58512 616c1.6-4.8 9.6-11.2 14.4-9.6 4.8 1.6 3.2 12.8 1.6 16-1.6 4.8-6.4 6.4-11.2 4.8-4.8-3.2-8-8-4.8-11.2z" fill="#333333" p-id="6539"></path><path d="M547.38512 521.6c3.2-6.4 14.4-16 20.8-14.4 6.4 3.2 4.8 17.6 3.2 24-3.2 6.4-11.2 9.6-17.6 6.4s-9.6-9.6-6.4-16z" fill="#333333" p-id="6540"></path><path d="M552.18512 521.6c1.6-4.8 9.6-11.2 14.4-9.6 4.8 1.6 3.2 12.8 1.6 16s-6.4 6.4-11.2 4.8c-6.4-1.6-8-6.4-4.8-11.2z" fill="#333333" p-id="6541"></path><path d="M336.18512 332.8c4.8 4.8 11.2 19.2 6.4 24-4.8 4.8-19.2 0-24-4.8-4.8-4.8-4.8-12.8 0-17.6 4.8-6.4 12.8-6.4 17.6-1.6z" fill="#333333" p-id="6542"></path><path d="M334.58512 336c3.2 3.2 8 12.8 4.8 16-3.2 3.2-12.8 0-16-3.2s-3.2-8 0-12.8c3.2-3.2 8-3.2 11.2 0z" fill="#333333" p-id="6543"></path></svg>